<?xml version="1.0" encoding="iso-8859-1"?>
<!-- Generator: Adobe Illustrator 19.0.0, SVG Export Plug-In . SVG Version: 6.00 Build 0)  -->
<svg version="1.1" id="Layer_1" xmlns="http://www.w3.org/2000/svg" xmlns:xlink="http://www.w3.org/1999/xlink" x="0px" y="0px"
	 viewBox="0 0 512 512" style="enable-background:new 0 0 512 512;" xml:space="preserve">
<g>
	<g>
		<rect x="495.837" y="123.85" width="15.642" height="40.668"/>
	</g>
</g>
<g>
	<g>
		<path d="M487.495,171.813v-56.31h-15.642v8.342h-64l0.079-79.705h-95.707v79.705h-8.376V44.141h-94.841l-0.158,79.705h-9.075
			V44.141h-95.278v79.705h-8.798V44.141H0v439.948h95.699v-79.739h8.798v79.739h95.278v-79.739h8.518l-0.159,79.739h95.714v-79.739
			h8.376v79.739h95.27l0.079-79.739h64.281v8.342h15.642v-56.31h-15.642v8.342h-64.24l0.2-201.255h64.04v8.342H487.495z
			 M80.058,84.22H64.13v15.642h15.927v8.342H64.13v15.642h15.927v280.505H64.13v15.642h15.927v8.342H64.13v15.642h15.927v24.472
			H15.642v-24.472h16.163v-15.642H15.642v-8.342h16.163v-15.642H15.642V123.846h16.163v-15.642H15.642v-8.342h16.163V84.22H15.642
			V59.783h64.416V84.22z M104.497,388.709h-8.798v-8.342h8.798V388.709z M104.497,364.725h-8.798V163.471h8.798V364.725z
			 M104.497,147.829h-8.798v-8.342h8.798V147.829z M184.133,84.22h-15.726v15.642h15.726v8.342h-15.726v15.642h15.726v280.505
			h-15.726v15.642h15.726v8.342h-15.726v15.642h15.726v24.472h-63.995v-24.472h15.943v-15.642h-15.943v-8.342h15.943v-15.642
			h-15.943V123.846h15.943v-15.642h-15.943v-8.342h15.943V84.22h-15.943V59.783h63.995V84.22z M208.325,388.709h-8.55v-8.342h8.566
			L208.325,388.709z M208.372,364.725h-8.598V163.471h0.001h8.996L208.372,364.725z M208.802,147.829h-9.027v-8.342h9.044
			L208.802,147.829z M288.208,84.22h-16.567v15.642h16.567v8.342h-16.567v15.642h16.567v280.505h-16.567v15.642h16.567v8.342
			h-16.567v15.642h16.567v24.472h-64.4l0.049-24.472h16.502v-15.642h-16.472l0.017-8.342h16.455v-15.642h-16.424l0.557-280.505
			h15.867v-15.642h-15.836l0.017-8.342h15.819V84.22h-15.788l0.049-24.437h63.588V84.22z M312.225,388.709h-8.376v-8.342h8.376
			V388.709z M312.225,364.725h-8.376V163.471h8.376V364.725z M312.225,147.829h-8.376v-8.342h8.376V147.829z M392.251,84.22h-16.333
			v15.642h16.316l-0.008,8.342h-16.308v15.642h16.293l-0.278,280.505h-16.015v15.642h15.999l-0.008,8.342h-15.991v15.642h15.975
			l-0.024,24.472h-64.003v-24.472h15.726v-15.642h-15.726v-8.342h15.726v-15.642h-15.726V123.846h15.726v-15.642h-15.726v-8.342
			h15.726V84.22h-15.726V59.783h64.409L392.251,84.22z M471.853,380.367v8.342H407.59l0.008-8.342H471.853z M407.829,147.829
			l0.008-8.342h64.016v8.342H407.829z"/>
	</g>
</g>
<g>
	<g>
		<rect x="495.837" y="363.687" width="15.642" height="40.668"/>
	</g>
</g>
<g>
	<g>
		<polygon points="456.212,316.758 456.212,332.4 471.853,332.4 471.853,348.041 487.495,348.041 487.495,332.4 504.179,332.4 
			504.179,316.758 		"/>
	</g>
</g>
<g>
	<g>
		<rect x="471.853" y="291.736" width="15.642" height="16.684"/>
	</g>
</g>
<g>
	<g>
		<path d="M487.495,44.141V27.911h-15.642v16.231h-23.53v63.676H512V44.141H487.495z M496.358,92.176h-32.394V59.783h32.394V92.176z
			"/>
	</g>
</g>
<g>
	<g>
		<rect x="471.853" y="68.579" width="16.684" height="15.642"/>
	</g>
</g>
<g>
</g>
<g>
</g>
<g>
</g>
<g>
</g>
<g>
</g>
<g>
</g>
<g>
</g>
<g>
</g>
<g>
</g>
<g>
</g>
<g>
</g>
<g>
</g>
<g>
</g>
<g>
</g>
<g>
</g>
</svg>
